<svg width="220" height="33" viewBox="0 0 220 33" fill="none" xmlns="http://www.w3.org/2000/svg">
<g clip-path="url(#clip0)">
<path fill-rule="evenodd" clip-rule="evenodd" d="M105.229 1.56618C104.573 1.02291 103.718 0.741687 102.847 0.781856C101.974 0.744587 101.12 1.02925 100.465 1.57569C99.8639 2.10763 99.5367 2.85999 99.5685 3.63761V4.46317C99.5367 5.24079 99.8639 5.99315 100.465 6.52508C101.123 7.06465 101.977 7.34239 102.847 7.29989C103.718 7.33998 104.573 7.05877 105.229 6.51558C105.83 5.98363 106.158 5.23127 106.126 4.45366V3.62809C106.158 2.85049 105.83 2.09812 105.229 1.56618ZM69.5956 11.7449C67.8892 10.179 65.5646 9.36262 63.1896 9.49504C60.2741 9.49504 58.0943 10.3053 56.65 11.9257H56.5661C55.8415 11.1127 54.9083 10.4887 53.8555 10.1136C52.6257 9.68042 51.3204 9.47029 50.008 9.49425C47.6329 9.36183 45.3084 10.1783 43.6019 11.7441C41.9833 13.4729 41.1578 15.7381 41.3072 18.0417V28.1594C41.2558 28.9581 41.5383 29.7441 42.0939 30.3482C42.6708 30.8905 43.4644 31.1756 44.2772 31.1324C45.0898 31.1756 45.8834 30.8905 46.4603 30.3482C47.0159 29.7441 47.2985 28.9581 47.2472 28.1594V18.4144C47.2472 15.8269 48.3107 14.5333 50.4379 14.5333C52.5652 14.5333 53.6288 15.8269 53.6288 18.4144V28.1594C53.5775 28.9581 53.86 29.7441 54.4156 30.3482C54.9924 30.8905 55.7862 31.1756 56.5988 31.1324C57.4114 31.1756 58.2052 30.8905 58.7819 30.3482C59.3376 29.7441 59.6201 28.9581 59.5688 28.1594V18.4144C59.5688 15.8269 60.6324 14.5333 62.7596 14.5333C64.8868 14.5333 65.9505 15.8269 65.9505 18.4144V28.1594C65.8992 28.9581 66.1816 29.7441 66.7372 30.3482C67.3141 30.8905 68.1079 31.1756 68.9205 31.1324C69.7331 31.1756 70.5269 30.8905 71.1037 30.3482C71.6594 29.7441 71.9418 28.9581 71.8905 28.1594V18.0424C72.0398 15.739 71.2144 13.4737 69.5956 11.7449ZM92.3748 11.9114C90.4696 10.2281 87.9178 9.35489 85.3131 9.49504H85.3079C83.6905 9.46158 82.0833 9.74343 80.5864 10.323C79.3331 10.8094 78.2445 11.6101 77.4383 12.6387C77.2554 12.9025 77.1087 13.1871 77.0017 13.4857C76.886 13.7976 76.8269 14.1258 76.8271 14.4563C76.8115 15.1651 77.1129 15.8472 77.6576 16.335C78.2047 16.8423 78.9465 17.1182 79.713 17.0996C80.1878 17.1045 80.6553 16.9907 81.0683 16.7697C81.4757 16.5498 81.8324 16.2551 82.1172 15.9028C82.8666 15.0106 84.0186 14.5054 85.224 14.5404C86.2312 14.4938 87.2134 14.8454 87.9345 15.511C88.6413 16.2482 89.0044 17.2227 88.9422 18.2154H84.3078C78.9154 18.2154 76.2191 20.2937 76.2191 24.4503V24.6152C76.1348 26.5355 77.0289 28.3777 78.624 29.571C80.5396 30.8719 82.8703 31.5116 85.2257 31.3831C87.858 31.5325 90.4407 30.6596 92.3748 28.9667C94.1674 27.1399 95.0917 24.7007 94.9333 22.2147V18.6635C95.0917 16.1774 94.1674 13.7382 92.3748 11.9114ZM85.1383 26.3433C86.1698 26.4008 87.1811 26.0568 87.9371 25.3916C88.6414 24.6777 89.0056 23.7225 88.9447 22.7485H84.2642C82.8648 22.7485 82.165 23.2715 82.165 24.3178V24.4416C82.1435 25.0085 82.4433 25.5433 82.9518 25.8452C83.6133 26.21 84.3736 26.3831 85.1383 26.3433ZM102.847 9.74326C103.659 9.70015 104.453 9.9853 105.03 10.5276C105.586 11.1317 105.868 11.9176 105.817 12.7164V28.1601C105.868 28.9589 105.586 29.7448 105.03 30.3489C104.453 30.8913 103.659 31.1764 102.847 31.1333C102.034 31.1764 101.24 30.8913 100.663 30.3489C100.108 29.7448 99.8254 28.9589 99.8767 28.1601V12.7164C99.8254 11.9176 100.108 11.1317 100.663 10.5276C101.24 9.9853 102.034 9.70015 102.847 9.74326ZM116.53 2.76368C115.953 2.22138 115.159 1.93623 114.346 1.97935C113.534 1.93644 112.74 2.22189 112.163 2.76446C111.607 3.36863 111.325 4.15452 111.376 4.95327V28.1594C111.325 28.9581 111.607 29.7441 112.163 30.3482C112.74 30.8905 113.534 31.1756 114.346 31.1324C115.159 31.1756 115.953 30.8905 116.53 30.3482C117.085 29.7441 117.368 28.9581 117.316 28.1594V4.95248C117.368 4.15372 117.085 3.36783 116.53 2.76368ZM137.916 13.2088C138.108 13.5974 138.211 14.0191 138.221 14.4476C138.267 15.1785 138.008 15.8971 137.5 16.45C136.977 16.9482 136.253 17.2114 135.511 17.1733C134.465 17.2364 133.476 16.721 132.975 15.8521C132.76 15.4852 132.469 15.1619 132.121 14.9004C131.735 14.6376 131.265 14.5068 130.789 14.5293C130.149 14.5024 129.536 14.7725 129.149 15.2525C128.719 15.8538 128.512 16.5724 128.561 17.2962V28.157C128.612 28.9557 128.329 29.7416 127.774 30.3458C127.197 30.888 126.403 31.1733 125.591 31.1301C124.778 31.1733 123.984 30.888 123.407 30.3458C122.852 29.7416 122.569 28.9557 122.621 28.157V17.1725C122.481 15.0791 123.264 13.0242 124.785 11.4959C126.437 10.0875 128.619 9.36589 130.84 9.49346C132.354 9.46004 133.852 9.79426 135.191 10.4641C136.394 11.0741 137.353 12.0373 137.925 13.2081L137.916 13.2088ZM157.7 11.9091C155.766 10.216 153.184 9.34308 150.552 9.49266H150.544C147.912 9.34253 145.329 10.2146 143.395 11.9067C141.602 13.7333 140.677 16.1725 140.836 18.6586V22.2099C140.678 24.696 141.602 27.1352 143.395 28.9619C145.329 30.6549 147.912 31.5278 150.544 31.3784C153.176 31.5278 155.759 30.6549 157.693 28.9619C159.486 27.1352 160.409 24.696 160.252 22.2099V18.6586C160.411 16.1745 159.49 13.7364 157.7 11.9091ZM150.552 14.5269C148.045 14.5269 146.791 15.9721 146.791 18.8625V22.0006C146.791 24.891 148.045 26.3361 150.552 26.3361C153.059 26.3361 154.312 24.891 154.312 22.0006V18.8625C154.312 15.9764 153.059 14.5333 150.552 14.5333V14.5269ZM181.486 11.9091C179.552 10.216 176.97 9.34308 174.337 9.49266C171.705 9.34253 169.122 10.2146 167.187 11.9067C165.395 13.7333 164.47 16.1725 164.629 18.6586V22.2124C164.47 24.6984 165.395 27.1375 167.187 28.9643C169.121 30.6572 171.705 31.5302 174.337 31.3807C176.97 31.5302 179.552 30.6572 181.486 28.9643C183.278 27.1375 184.203 24.6984 184.044 22.2124V18.661C184.203 16.175 183.278 13.7357 181.486 11.9091ZM174.337 14.5269C171.83 14.5269 170.577 15.9721 170.577 18.8625V22.0006C170.577 24.891 171.83 26.3361 174.337 26.3361C176.843 26.3361 178.096 24.891 178.096 22.0006V18.8625C178.096 15.9764 176.843 14.5333 174.337 14.5333V14.5269ZM217.033 11.7425C215.326 10.1767 213.001 9.36024 210.627 9.49266L210.645 9.49504C207.729 9.49504 205.543 10.3053 204.087 11.9257H204.003C203.279 11.1127 202.345 10.4887 201.292 10.1136C200.063 9.68041 198.757 9.47027 197.445 9.49425C195.07 9.36183 192.746 10.1783 191.039 11.7441C189.42 13.4729 188.595 15.7381 188.745 18.0417V28.157C188.692 28.9557 188.975 29.7416 189.531 30.3458C190.108 30.888 190.901 31.1733 191.715 31.1301C192.527 31.1733 193.32 30.888 193.897 30.3458C194.453 29.7416 194.736 28.9557 194.685 28.157V18.4121C194.685 15.8246 195.748 14.5309 197.875 14.5309C200.002 14.5309 201.066 15.8246 201.066 18.4121V28.157C201.015 28.9557 201.297 29.7416 201.853 30.3458C202.429 30.888 203.224 31.1733 204.036 31.1301C204.848 31.1733 205.642 30.888 206.219 30.3458C206.774 29.7416 207.057 28.9557 207.006 28.157V18.4121C207.006 15.8246 208.069 14.5309 210.197 14.5309C212.324 14.5309 213.387 15.8246 213.387 18.4121V28.157C213.336 28.9557 213.619 29.7416 214.174 30.3458C214.751 30.888 215.545 31.1733 216.357 31.1301C217.171 31.1733 217.964 30.888 218.541 30.3458C219.096 29.7416 219.378 28.9557 219.327 28.157V18.0401C219.477 15.7366 218.651 13.4714 217.033 11.7425Z" fill="black"/>
<path fill-rule="evenodd" clip-rule="evenodd" d="M3.26305 6.6077C5.01573 6.65347 6.47657 5.35008 6.52778 3.69485C6.47703 2.03929 5.01605 0.735433 3.26305 0.781198C1.51071 0.736325 0.0507647 2.03993 0 3.69485C0.0512183 5.34945 1.51103 6.65258 3.26305 6.6077Z" fill="#1C2D41"/>
<path fill-rule="evenodd" clip-rule="evenodd" d="M30.0769 23.1212C31.7599 23.0329 33.0579 21.6879 32.9953 20.0972C32.9327 18.5064 31.5325 17.2561 29.8472 17.2862C28.162 17.3163 26.8129 18.6157 26.8139 20.2075C26.8647 21.8625 28.3246 23.166 30.0769 23.1212Z" fill="#1C2D41"/>
<path d="M30.2562 0.781982H13.1391C11.4355 0.781982 10.0545 2.08629 10.0545 3.69523C10.0545 5.30418 11.4355 6.60848 13.1391 6.60848H30.2562C31.9598 6.60848 33.3409 5.30418 33.3409 3.69523C33.3409 2.08629 31.9598 0.781982 30.2562 0.781982Z" fill="#02B67C"/>
<path d="M30.2572 25.5447H3.08462C1.38103 25.5447 0 26.849 0 28.4579C0 30.0669 1.38103 31.3712 3.08462 31.3712H30.2572C31.9607 31.3712 33.3418 30.0669 33.3418 28.4579C33.3418 26.849 31.9607 25.5447 30.2572 25.5447Z" fill="#FF1E59"/>
<path d="M10.2346 9.03589H3.08462C1.38103 9.03589 0 10.3402 0 11.9491C0 13.5581 1.38103 14.8624 3.08462 14.8624H10.2346C11.9382 14.8624 13.3192 13.5581 13.3192 11.9491C13.3192 10.3402 11.9382 9.03589 10.2346 9.03589Z" fill="#027AFF"/>
<path d="M30.257 9.03589H19.844C18.1404 9.03589 16.7594 10.3402 16.7594 11.9491C16.7594 13.5581 18.1404 14.8624 19.844 14.8624H30.257C31.9606 14.8624 33.3416 13.5581 33.3416 11.9491C33.3416 10.3402 31.9606 9.03589 30.257 9.03589Z" fill="#804DDF"/>
<path d="M20.2017 17.2905H3.08462C1.38103 17.2905 0 18.5948 0 20.2038C0 21.8127 1.38103 23.117 3.08462 23.117H20.2017C21.9053 23.117 23.2864 21.8127 23.2864 20.2038C23.2864 18.5948 21.9053 17.2905 20.2017 17.2905Z" fill="#FFB02F"/>
</g>
<defs>
<clipPath id="clip0">
<rect width="220" height="31.4083" fill="white" transform="translate(0 0.777832)"/>
</clipPath>
</defs>
</svg>
